<mxfile host="Electron" agent="Mozilla/5.0 (Windows NT 10.0; Win64; x64) AppleWebKit/537.36 (KHTML, like Gecko) draw.io/26.0.9 Chrome/128.0.6613.186 Electron/32.2.5 Safari/537.36" version="26.0.9" pages="3">
  <diagram id="_f5m5LR9E8L5jP-z1Y56" name="veth">
    <mxGraphModel dx="986" dy="827" grid="1" gridSize="10" guides="1" tooltips="1" connect="1" arrows="1" fold="1" page="1" pageScale="1" pageWidth="827" pageHeight="1169" math="0" shadow="0">
      <root>
        <mxCell id="0" />
        <mxCell id="1" parent="0" />
        <mxCell id="RP_6BdAvPYwAgskeF7l2-1" value="" style="group" vertex="1" connectable="0" parent="1">
          <mxGeometry x="40" y="40" width="120" height="120" as="geometry" />
        </mxCell>
        <mxCell id="RP_6BdAvPYwAgskeF7l2-2" value="" style="whiteSpace=wrap;html=1;aspect=fixed;sketch=1;hachureGap=4;jiggle=2;curveFitting=1;strokeColor=#000000;fontFamily=Architects Daughter;fontSource=https%3A%2F%2Ffonts.googleapis.com%2Fcss%3Ffamily%3DArchitects%2BDaughter;fontColor=#393C56;fillColor=#007FFF;movable=1;resizable=1;rotatable=1;deletable=1;editable=1;locked=0;connectable=1;" vertex="1" parent="RP_6BdAvPYwAgskeF7l2-1">
          <mxGeometry width="120" height="120" as="geometry" />
        </mxCell>
        <mxCell id="RP_6BdAvPYwAgskeF7l2-3" value="ns..." style="text;strokeColor=none;fillColor=none;html=1;fontSize=24;fontStyle=1;verticalAlign=middle;align=center;fontFamily=Architects Daughter;fontSource=https%3A%2F%2Ffonts.googleapis.com%2Fcss%3Ffamily%3DArchitects%2BDaughter;fontColor=#393C56;movable=1;resizable=1;rotatable=1;deletable=1;editable=1;locked=0;connectable=1;" vertex="1" parent="RP_6BdAvPYwAgskeF7l2-1">
          <mxGeometry x="10" width="100" height="40" as="geometry" />
        </mxCell>
        <mxCell id="RP_6BdAvPYwAgskeF7l2-4" value="veth..." style="rounded=1;whiteSpace=wrap;html=1;sketch=1;hachureGap=4;jiggle=2;curveFitting=1;strokeColor=#000000;fontFamily=Architects Daughter;fontSource=https%3A%2F%2Ffonts.googleapis.com%2Fcss%3Ffamily%3DArchitects%2BDaughter;fontColor=#393C56;fillColor=default;fontSize=20;movable=1;resizable=1;rotatable=1;deletable=1;editable=1;locked=0;connectable=1;" vertex="1" parent="RP_6BdAvPYwAgskeF7l2-1">
          <mxGeometry x="25" y="80" width="70" height="40" as="geometry" />
        </mxCell>
        <mxCell id="RP_6BdAvPYwAgskeF7l2-6" value="" style="whiteSpace=wrap;html=1;aspect=fixed;sketch=1;hachureGap=4;jiggle=2;curveFitting=1;strokeColor=#000000;fontFamily=Architects Daughter;fontSource=https%3A%2F%2Ffonts.googleapis.com%2Fcss%3Ffamily%3DArchitects%2BDaughter;fontColor=#393C56;fillColor=#007FFF;movable=1;resizable=1;rotatable=1;deletable=1;editable=1;locked=0;connectable=1;container=0;" vertex="1" parent="1">
          <mxGeometry x="200" y="40" width="120" height="120" as="geometry" />
        </mxCell>
        <mxCell id="RP_6BdAvPYwAgskeF7l2-7" value="ns..." style="text;strokeColor=none;fillColor=none;html=1;fontSize=24;fontStyle=1;verticalAlign=middle;align=center;fontFamily=Architects Daughter;fontSource=https%3A%2F%2Ffonts.googleapis.com%2Fcss%3Ffamily%3DArchitects%2BDaughter;fontColor=#393C56;movable=1;resizable=1;rotatable=1;deletable=1;editable=1;locked=0;connectable=1;container=0;" vertex="1" parent="1">
          <mxGeometry x="360" y="40" width="100" height="40" as="geometry" />
        </mxCell>
        <mxCell id="RP_6BdAvPYwAgskeF7l2-8" value="veth..." style="rounded=1;whiteSpace=wrap;html=1;sketch=1;hachureGap=4;jiggle=2;curveFitting=1;strokeColor=#000000;fontFamily=Architects Daughter;fontSource=https%3A%2F%2Ffonts.googleapis.com%2Fcss%3Ffamily%3DArchitects%2BDaughter;fontColor=#393C56;fillColor=default;fontSize=20;movable=1;resizable=1;rotatable=1;deletable=1;editable=1;locked=0;connectable=1;container=0;" vertex="1" parent="1">
          <mxGeometry x="379" y="120" width="70" height="40" as="geometry" />
        </mxCell>
      </root>
    </mxGraphModel>
  </diagram>
  <diagram name="veth basic" id="9n7n2OoamNd9vUTj5aNR">
    <mxGraphModel dx="986" dy="827" grid="1" gridSize="10" guides="1" tooltips="1" connect="1" arrows="1" fold="1" page="1" pageScale="1" pageWidth="827" pageHeight="1169" math="0" shadow="0">
      <root>
        <mxCell id="0" />
        <mxCell id="1" parent="0" />
        <mxCell id="jtp5V4vhF1qppO55_ybR-1" value="" style="rounded=0;whiteSpace=wrap;html=1;sketch=1;curveFitting=1;jiggle=2;labelBackgroundColor=none;fillColor=#F2CC8F;strokeColor=#E07A5F;fontColor=#393C56;" vertex="1" parent="1">
          <mxGeometry x="80" y="80" width="440" height="280" as="geometry" />
        </mxCell>
        <mxCell id="jtp5V4vhF1qppO55_ybR-2" value="host" style="text;strokeColor=none;fillColor=none;html=1;fontSize=24;fontStyle=1;verticalAlign=middle;align=center;fontFamily=Architects Daughter;fontSource=https%3A%2F%2Ffonts.googleapis.com%2Fcss%3Ffamily%3DArchitects%2BDaughter;fontColor=#393C56;" vertex="1" parent="1">
          <mxGeometry x="250" y="90" width="100" height="40" as="geometry" />
        </mxCell>
        <mxCell id="R2Cz_HbnfYikDn4Q8eBr-1" value="" style="group" vertex="1" connectable="0" parent="1">
          <mxGeometry x="120" y="160" width="120" height="120" as="geometry" />
        </mxCell>
        <mxCell id="R2Cz_HbnfYikDn4Q8eBr-2" value="" style="whiteSpace=wrap;html=1;aspect=fixed;sketch=1;hachureGap=4;jiggle=2;curveFitting=1;strokeColor=#000000;fontFamily=Architects Daughter;fontSource=https%3A%2F%2Ffonts.googleapis.com%2Fcss%3Ffamily%3DArchitects%2BDaughter;fontColor=#393C56;fillColor=#007FFF;movable=1;resizable=1;rotatable=1;deletable=1;editable=1;locked=0;connectable=1;" vertex="1" parent="R2Cz_HbnfYikDn4Q8eBr-1">
          <mxGeometry width="120" height="120" as="geometry" />
        </mxCell>
        <mxCell id="R2Cz_HbnfYikDn4Q8eBr-3" value="ns1" style="text;strokeColor=none;fillColor=none;html=1;fontSize=24;fontStyle=1;verticalAlign=middle;align=center;fontFamily=Architects Daughter;fontSource=https%3A%2F%2Ffonts.googleapis.com%2Fcss%3Ffamily%3DArchitects%2BDaughter;fontColor=#393C56;movable=1;resizable=1;rotatable=1;deletable=1;editable=1;locked=0;connectable=1;" vertex="1" parent="R2Cz_HbnfYikDn4Q8eBr-1">
          <mxGeometry x="10" width="100" height="40" as="geometry" />
        </mxCell>
        <mxCell id="R2Cz_HbnfYikDn4Q8eBr-4" value="veth1" style="rounded=1;whiteSpace=wrap;html=1;sketch=1;hachureGap=4;jiggle=2;curveFitting=1;strokeColor=#000000;fontFamily=Architects Daughter;fontSource=https%3A%2F%2Ffonts.googleapis.com%2Fcss%3Ffamily%3DArchitects%2BDaughter;fontColor=#393C56;fillColor=default;fontSize=20;movable=1;resizable=1;rotatable=1;deletable=1;editable=1;locked=0;connectable=1;" vertex="1" parent="R2Cz_HbnfYikDn4Q8eBr-1">
          <mxGeometry x="25" y="80" width="70" height="40" as="geometry" />
        </mxCell>
        <mxCell id="s11-odMuehypV0PxfjtB-1" value="" style="group" vertex="1" connectable="0" parent="1">
          <mxGeometry x="360" y="160" width="120" height="120" as="geometry" />
        </mxCell>
        <mxCell id="s11-odMuehypV0PxfjtB-2" value="" style="whiteSpace=wrap;html=1;aspect=fixed;sketch=1;hachureGap=4;jiggle=2;curveFitting=1;strokeColor=#000000;fontFamily=Architects Daughter;fontSource=https%3A%2F%2Ffonts.googleapis.com%2Fcss%3Ffamily%3DArchitects%2BDaughter;fontColor=#393C56;fillColor=#007FFF;movable=1;resizable=1;rotatable=1;deletable=1;editable=1;locked=0;connectable=1;" vertex="1" parent="s11-odMuehypV0PxfjtB-1">
          <mxGeometry width="120" height="120" as="geometry" />
        </mxCell>
        <mxCell id="s11-odMuehypV0PxfjtB-3" value="ns2" style="text;strokeColor=none;fillColor=none;html=1;fontSize=24;fontStyle=1;verticalAlign=middle;align=center;fontFamily=Architects Daughter;fontSource=https%3A%2F%2Ffonts.googleapis.com%2Fcss%3Ffamily%3DArchitects%2BDaughter;fontColor=#393C56;movable=1;resizable=1;rotatable=1;deletable=1;editable=1;locked=0;connectable=1;" vertex="1" parent="s11-odMuehypV0PxfjtB-1">
          <mxGeometry x="10" width="100" height="40" as="geometry" />
        </mxCell>
        <mxCell id="s11-odMuehypV0PxfjtB-4" value="veth2" style="rounded=1;whiteSpace=wrap;html=1;sketch=1;hachureGap=4;jiggle=2;curveFitting=1;strokeColor=#000000;fontFamily=Architects Daughter;fontSource=https%3A%2F%2Ffonts.googleapis.com%2Fcss%3Ffamily%3DArchitects%2BDaughter;fontColor=#393C56;fillColor=default;fontSize=20;movable=1;resizable=1;rotatable=1;deletable=1;editable=1;locked=0;connectable=1;" vertex="1" parent="s11-odMuehypV0PxfjtB-1">
          <mxGeometry x="25" y="80" width="70" height="40" as="geometry" />
        </mxCell>
        <mxCell id="s11-odMuehypV0PxfjtB-5" value="" style="endArrow=classic;startArrow=classic;html=1;rounded=0;sketch=1;hachureGap=4;jiggle=2;curveFitting=1;strokeColor=#E07A5F;fontFamily=Architects Daughter;fontSource=https%3A%2F%2Ffonts.googleapis.com%2Fcss%3Ffamily%3DArchitects%2BDaughter;fontColor=#393C56;fillColor=#F2CC8F;exitX=0.5;exitY=1;exitDx=0;exitDy=0;entryX=0.5;entryY=1;entryDx=0;entryDy=0;shadow=0;flowAnimation=0;" edge="1" parent="1" source="R2Cz_HbnfYikDn4Q8eBr-4" target="s11-odMuehypV0PxfjtB-4">
          <mxGeometry width="50" height="50" relative="1" as="geometry">
            <mxPoint x="220" y="520" as="sourcePoint" />
            <mxPoint x="270" y="470" as="targetPoint" />
            <Array as="points">
              <mxPoint x="300" y="330" />
            </Array>
          </mxGeometry>
        </mxCell>
      </root>
    </mxGraphModel>
  </diagram>
  <diagram id="ap83H95kaW_1PLC30g-j" name="veth bridge">
    <mxGraphModel dx="986" dy="827" grid="1" gridSize="10" guides="1" tooltips="1" connect="1" arrows="1" fold="1" page="1" pageScale="1" pageWidth="827" pageHeight="1169" math="0" shadow="0">
      <root>
        <mxCell id="0" />
        <mxCell id="1" parent="0" />
        <mxCell id="xdrLrjXQJy6f7-XT6q0i-1" value="" style="rounded=0;whiteSpace=wrap;html=1;sketch=1;curveFitting=1;jiggle=2;labelBackgroundColor=none;fillColor=#F2CC8F;strokeColor=#E07A5F;fontColor=#393C56;" vertex="1" parent="1">
          <mxGeometry x="80" y="80" width="520" height="400" as="geometry" />
        </mxCell>
        <mxCell id="xdrLrjXQJy6f7-XT6q0i-2" value="host" style="text;strokeColor=none;fillColor=none;html=1;fontSize=24;fontStyle=1;verticalAlign=middle;align=center;fontFamily=Architects Daughter;fontSource=https%3A%2F%2Ffonts.googleapis.com%2Fcss%3Ffamily%3DArchitects%2BDaughter;fontColor=#393C56;" vertex="1" parent="1">
          <mxGeometry x="290" y="90" width="100" height="40" as="geometry" />
        </mxCell>
        <mxCell id="3E_MkEKTT18vOSAzYj5m-4" value="" style="group" vertex="1" connectable="0" parent="1">
          <mxGeometry x="120" y="160" width="120" height="120" as="geometry" />
        </mxCell>
        <mxCell id="xdrLrjXQJy6f7-XT6q0i-3" value="" style="whiteSpace=wrap;html=1;aspect=fixed;sketch=1;hachureGap=4;jiggle=2;curveFitting=1;strokeColor=#000000;fontFamily=Architects Daughter;fontSource=https%3A%2F%2Ffonts.googleapis.com%2Fcss%3Ffamily%3DArchitects%2BDaughter;fontColor=#393C56;fillColor=#007FFF;movable=1;resizable=1;rotatable=1;deletable=1;editable=1;locked=0;connectable=1;" vertex="1" parent="3E_MkEKTT18vOSAzYj5m-4">
          <mxGeometry width="120" height="120" as="geometry" />
        </mxCell>
        <mxCell id="xdrLrjXQJy6f7-XT6q0i-5" value="ns1" style="text;strokeColor=none;fillColor=none;html=1;fontSize=24;fontStyle=1;verticalAlign=middle;align=center;fontFamily=Architects Daughter;fontSource=https%3A%2F%2Ffonts.googleapis.com%2Fcss%3Ffamily%3DArchitects%2BDaughter;fontColor=#393C56;movable=1;resizable=1;rotatable=1;deletable=1;editable=1;locked=0;connectable=1;" vertex="1" parent="3E_MkEKTT18vOSAzYj5m-4">
          <mxGeometry x="10" width="100" height="40" as="geometry" />
        </mxCell>
        <mxCell id="xdrLrjXQJy6f7-XT6q0i-7" value="veth1" style="rounded=1;whiteSpace=wrap;html=1;sketch=1;hachureGap=4;jiggle=2;curveFitting=1;strokeColor=#000000;fontFamily=Architects Daughter;fontSource=https%3A%2F%2Ffonts.googleapis.com%2Fcss%3Ffamily%3DArchitects%2BDaughter;fontColor=#393C56;fillColor=default;fontSize=20;movable=1;resizable=1;rotatable=1;deletable=1;editable=1;locked=0;connectable=1;" vertex="1" parent="3E_MkEKTT18vOSAzYj5m-4">
          <mxGeometry x="25" y="80" width="70" height="40" as="geometry" />
        </mxCell>
        <mxCell id="3E_MkEKTT18vOSAzYj5m-5" value="" style="group" vertex="1" connectable="0" parent="1">
          <mxGeometry x="280" y="160" width="120" height="120" as="geometry" />
        </mxCell>
        <mxCell id="3E_MkEKTT18vOSAzYj5m-6" value="" style="whiteSpace=wrap;html=1;aspect=fixed;sketch=1;hachureGap=4;jiggle=2;curveFitting=1;strokeColor=#000000;fontFamily=Architects Daughter;fontSource=https%3A%2F%2Ffonts.googleapis.com%2Fcss%3Ffamily%3DArchitects%2BDaughter;fontColor=#393C56;fillColor=#007FFF;movable=1;resizable=1;rotatable=1;deletable=1;editable=1;locked=0;connectable=1;" vertex="1" parent="3E_MkEKTT18vOSAzYj5m-5">
          <mxGeometry width="120" height="120" as="geometry" />
        </mxCell>
        <mxCell id="3E_MkEKTT18vOSAzYj5m-7" value="ns2" style="text;strokeColor=none;fillColor=none;html=1;fontSize=24;fontStyle=1;verticalAlign=middle;align=center;fontFamily=Architects Daughter;fontSource=https%3A%2F%2Ffonts.googleapis.com%2Fcss%3Ffamily%3DArchitects%2BDaughter;fontColor=#393C56;movable=1;resizable=1;rotatable=1;deletable=1;editable=1;locked=0;connectable=1;" vertex="1" parent="3E_MkEKTT18vOSAzYj5m-5">
          <mxGeometry x="10" width="100" height="40" as="geometry" />
        </mxCell>
        <mxCell id="3E_MkEKTT18vOSAzYj5m-8" value="veth2" style="rounded=1;whiteSpace=wrap;html=1;sketch=1;hachureGap=4;jiggle=2;curveFitting=1;strokeColor=#000000;fontFamily=Architects Daughter;fontSource=https%3A%2F%2Ffonts.googleapis.com%2Fcss%3Ffamily%3DArchitects%2BDaughter;fontColor=#393C56;fillColor=default;fontSize=20;movable=1;resizable=1;rotatable=1;deletable=1;editable=1;locked=0;connectable=1;" vertex="1" parent="3E_MkEKTT18vOSAzYj5m-5">
          <mxGeometry x="25" y="80" width="70" height="40" as="geometry" />
        </mxCell>
        <mxCell id="3E_MkEKTT18vOSAzYj5m-9" value="" style="group" vertex="1" connectable="0" parent="1">
          <mxGeometry x="440" y="160" width="120" height="120" as="geometry" />
        </mxCell>
        <mxCell id="3E_MkEKTT18vOSAzYj5m-10" value="" style="whiteSpace=wrap;html=1;aspect=fixed;sketch=1;hachureGap=4;jiggle=2;curveFitting=1;strokeColor=#000000;fontFamily=Architects Daughter;fontSource=https%3A%2F%2Ffonts.googleapis.com%2Fcss%3Ffamily%3DArchitects%2BDaughter;fontColor=#393C56;fillColor=#007FFF;movable=1;resizable=1;rotatable=1;deletable=1;editable=1;locked=0;connectable=1;" vertex="1" parent="3E_MkEKTT18vOSAzYj5m-9">
          <mxGeometry width="120" height="120" as="geometry" />
        </mxCell>
        <mxCell id="3E_MkEKTT18vOSAzYj5m-11" value="ns..." style="text;strokeColor=none;fillColor=none;html=1;fontSize=24;fontStyle=1;verticalAlign=middle;align=center;fontFamily=Architects Daughter;fontSource=https%3A%2F%2Ffonts.googleapis.com%2Fcss%3Ffamily%3DArchitects%2BDaughter;fontColor=#393C56;movable=1;resizable=1;rotatable=1;deletable=1;editable=1;locked=0;connectable=1;" vertex="1" parent="3E_MkEKTT18vOSAzYj5m-9">
          <mxGeometry x="10" width="100" height="40" as="geometry" />
        </mxCell>
        <mxCell id="3E_MkEKTT18vOSAzYj5m-12" value="veth..." style="rounded=1;whiteSpace=wrap;html=1;sketch=1;hachureGap=4;jiggle=2;curveFitting=1;strokeColor=#000000;fontFamily=Architects Daughter;fontSource=https%3A%2F%2Ffonts.googleapis.com%2Fcss%3Ffamily%3DArchitects%2BDaughter;fontColor=#393C56;fillColor=default;fontSize=20;movable=1;resizable=1;rotatable=1;deletable=1;editable=1;locked=0;connectable=1;" vertex="1" parent="3E_MkEKTT18vOSAzYj5m-9">
          <mxGeometry x="25" y="80" width="70" height="40" as="geometry" />
        </mxCell>
        <mxCell id="yaDulzGHkOgwKE1QpRVY-1" value="" style="rounded=1;whiteSpace=wrap;html=1;sketch=1;hachureGap=4;jiggle=2;curveFitting=1;strokeColor=#E07A5F;fontFamily=Architects Daughter;fontSource=https%3A%2F%2Ffonts.googleapis.com%2Fcss%3Ffamily%3DArchitects%2BDaughter;fontColor=#393C56;fillColor=#F2CC8F;" vertex="1" parent="1">
          <mxGeometry x="120" y="360" width="440" height="80" as="geometry" />
        </mxCell>
        <mxCell id="yaDulzGHkOgwKE1QpRVY-2" value="br-veth" style="text;strokeColor=none;fillColor=none;html=1;fontSize=24;fontStyle=1;verticalAlign=middle;align=center;fontFamily=Architects Daughter;fontSource=https%3A%2F%2Ffonts.googleapis.com%2Fcss%3Ffamily%3DArchitects%2BDaughter;fontColor=#393C56;" vertex="1" parent="1">
          <mxGeometry x="290" y="400" width="100" height="40" as="geometry" />
        </mxCell>
        <mxCell id="yaDulzGHkOgwKE1QpRVY-8" value="veth1-p" style="rounded=1;whiteSpace=wrap;html=1;sketch=1;hachureGap=4;jiggle=2;curveFitting=1;strokeColor=#000000;fontFamily=Architects Daughter;fontSource=https%3A%2F%2Ffonts.googleapis.com%2Fcss%3Ffamily%3DArchitects%2BDaughter;fontColor=#393C56;fillColor=default;fontSize=20;movable=1;resizable=1;rotatable=1;deletable=1;editable=1;locked=0;connectable=1;" vertex="1" parent="1">
          <mxGeometry x="145" y="360" width="70" height="40" as="geometry" />
        </mxCell>
        <mxCell id="yaDulzGHkOgwKE1QpRVY-9" value="veth1-p" style="rounded=1;whiteSpace=wrap;html=1;sketch=1;hachureGap=4;jiggle=2;curveFitting=1;strokeColor=#000000;fontFamily=Architects Daughter;fontSource=https%3A%2F%2Ffonts.googleapis.com%2Fcss%3Ffamily%3DArchitects%2BDaughter;fontColor=#393C56;fillColor=default;fontSize=20;movable=1;resizable=1;rotatable=1;deletable=1;editable=1;locked=0;connectable=1;" vertex="1" parent="1">
          <mxGeometry x="305" y="360" width="70" height="40" as="geometry" />
        </mxCell>
        <mxCell id="yaDulzGHkOgwKE1QpRVY-10" value="veth...-p" style="rounded=1;whiteSpace=wrap;html=1;sketch=1;hachureGap=4;jiggle=2;curveFitting=1;strokeColor=#000000;fontFamily=Architects Daughter;fontSource=https%3A%2F%2Ffonts.googleapis.com%2Fcss%3Ffamily%3DArchitects%2BDaughter;fontColor=#393C56;fillColor=default;fontSize=20;movable=1;resizable=1;rotatable=1;deletable=1;editable=1;locked=0;connectable=1;" vertex="1" parent="1">
          <mxGeometry x="465" y="360" width="70" height="40" as="geometry" />
        </mxCell>
        <mxCell id="_CrFSLxKkMjy1eWv_cX5-1" value="" style="endArrow=classic;startArrow=classic;html=1;rounded=0;sketch=1;hachureGap=4;jiggle=2;curveFitting=1;strokeColor=#E07A5F;fontFamily=Architects Daughter;fontSource=https%3A%2F%2Ffonts.googleapis.com%2Fcss%3Ffamily%3DArchitects%2BDaughter;fontColor=#393C56;fillColor=#F2CC8F;entryX=0.5;entryY=1;entryDx=0;entryDy=0;" edge="1" parent="1" source="yaDulzGHkOgwKE1QpRVY-8" target="xdrLrjXQJy6f7-XT6q0i-7">
          <mxGeometry width="50" height="50" relative="1" as="geometry">
            <mxPoint x="390" y="250" as="sourcePoint" />
            <mxPoint x="440" y="200" as="targetPoint" />
          </mxGeometry>
        </mxCell>
        <mxCell id="_CrFSLxKkMjy1eWv_cX5-2" value="" style="endArrow=classic;startArrow=classic;html=1;rounded=0;sketch=1;hachureGap=4;jiggle=2;curveFitting=1;strokeColor=#E07A5F;fontFamily=Architects Daughter;fontSource=https%3A%2F%2Ffonts.googleapis.com%2Fcss%3Ffamily%3DArchitects%2BDaughter;fontColor=#393C56;fillColor=#F2CC8F;entryX=0.5;entryY=1;entryDx=0;entryDy=0;" edge="1" parent="1">
          <mxGeometry width="50" height="50" relative="1" as="geometry">
            <mxPoint x="339.5" y="360" as="sourcePoint" />
            <mxPoint x="339.5" y="280" as="targetPoint" />
          </mxGeometry>
        </mxCell>
        <mxCell id="_CrFSLxKkMjy1eWv_cX5-3" value="" style="endArrow=classic;startArrow=classic;html=1;rounded=0;sketch=1;hachureGap=4;jiggle=2;curveFitting=1;strokeColor=#E07A5F;fontFamily=Architects Daughter;fontSource=https%3A%2F%2Ffonts.googleapis.com%2Fcss%3Ffamily%3DArchitects%2BDaughter;fontColor=#393C56;fillColor=#F2CC8F;entryX=0.5;entryY=1;entryDx=0;entryDy=0;" edge="1" parent="1">
          <mxGeometry width="50" height="50" relative="1" as="geometry">
            <mxPoint x="499.5" y="360" as="sourcePoint" />
            <mxPoint x="499.5" y="280" as="targetPoint" />
          </mxGeometry>
        </mxCell>
      </root>
    </mxGraphModel>
  </diagram>
</mxfile>
